<?xml version="1.0" standalone="no"?>
<!DOCTYPE svg PUBLIC "-//W3C//DTD SVG 20010904//EN"
 "http://www.w3.org/TR/2001/REC-SVG-20010904/DTD/svg10.dtd">
<svg version="1.0" xmlns="http://www.w3.org/2000/svg"
 width="128.000000pt" height="128.000000pt" viewBox="0 0 128.000000 128.000000"
 preserveAspectRatio="xMidYMid meet">

<g transform="translate(0.000000,128.000000) scale(0.100000,-0.100000)"
fill="#000000" stroke="none">
<path d="M649 1150 c-7 -22 -15 -40 -19 -40 -3 0 -17 -26 -30 -57 -13 -32 -30
-64 -37 -71 -15 -15 -34 -82 -27 -94 3 -4 32 -8 64 -8 32 0 60 -4 62 -8 3 -8
463 -53 530 -52 23 0 29 7 48 57 11 31 20 63 18 72 -2 8 -21 22 -43 30 -22 8
-42 18 -45 21 -3 4 -41 19 -85 35 -44 16 -82 32 -85 36 -3 3 -35 17 -72 29
-38 12 -68 26 -68 30 0 4 -10 10 -22 13 -13 3 -48 14 -78 26 -82 31 -97 29
-111 -19z"/>
<path d="M325 1099 c-16 -10 -37 -24 -45 -31 -8 -7 -24 -18 -35 -24 -42 -22
-69 -40 -93 -61 -14 -13 -30 -23 -36 -23 -6 0 -19 -8 -27 -17 -9 -10 -30 -26
-48 -35 -17 -9 -31 -24 -31 -33 0 -22 41 -105 52 -105 21 0 153 33 158 40 5 6
37 14 173 42 31 6 57 15 57 20 0 4 7 8 16 8 11 0 14 5 9 18 -4 9 -12 29 -17
45 -5 15 -13 27 -17 27 -4 0 -18 26 -31 58 -13 31 -31 64 -39 73 -15 15 -18
15 -46 -2z"/>
<path d="M365 776 c-49 -11 -92 -23 -95 -27 -3 -4 -47 -16 -98 -26 l-92 -18 0
-230 c0 -126 4 -235 8 -240 7 -10 54 -24 160 -46 28 -6 52 -14 52 -18 0 -9
148 -36 155 -29 3 3 4 151 3 329 l-3 324 -90 -19z"/>
<path d="M540 466 l0 -336 33 0 c59 0 392 34 397 41 3 3 46 10 95 13 50 4 98
10 108 12 16 5 17 26 17 269 l0 263 -22 6 c-13 3 -47 6 -75 6 -29 0 -53 4 -53
8 0 4 -93 16 -207 26 -115 10 -227 20 -250 23 l-43 6 0 -337z m380 102 c0 -20
-24 -82 -37 -96 -7 -7 -13 -20 -13 -27 0 -25 -23 -65 -37 -65 -7 0 -13 5 -13
10 0 6 4 10 9 10 8 0 51 120 51 142 0 11 23 37 33 38 4 0 7 -5 7 -12z m-139
-42 c-7 -8 -23 -17 -36 -20 -14 -4 -25 -11 -25 -16 0 -6 -7 -10 -15 -10 -30 0
-14 -16 29 -29 38 -11 65 -35 53 -47 -6 -6 -67 17 -67 25 0 4 -16 13 -35 20
-39 14 -43 21 -17 39 62 44 139 70 113 38z m243 -6 c25 -10 46 -24 46 -30 0
-6 -15 -19 -32 -29 -18 -11 -41 -27 -50 -37 -17 -16 -18 -16 -18 0 0 9 16 26
35 37 41 24 44 35 13 42 -27 7 -68 36 -51 37 6 0 32 -9 57 -20z"/>
</g>
</svg>
